<?xml version="1.0" standalone="no"?>
<!DOCTYPE svg PUBLIC "-//W3C//DTD SVG 20010904//EN"
 "http://www.w3.org/TR/2001/REC-SVG-20010904/DTD/svg10.dtd">
<svg version="1.0" xmlns="http://www.w3.org/2000/svg"
 width="272.000000pt" height="256.000000pt" viewBox="0 0 272.000000 256.000000"
 preserveAspectRatio="xMidYMid meet">

<g transform="translate(0.000000,256.000000) scale(0.100000,-0.100000)"
fill="#000000" stroke="none">
<path d="M1166 1349 c-19 -22 -26 -42 -26 -71 0 -28 -7 -49 -24 -68 -13 -16
-27 -49 -30 -75 -4 -26 -17 -56 -28 -67 -12 -12 -16 -24 -11 -29 15 -15 35 -1
76 53 l39 50 51 -7 c52 -7 77 -25 77 -55 0 -26 24 -52 42 -45 22 9 13 75 -18
137 -13 26 -24 55 -24 64 0 10 -13 46 -30 81 -35 73 -54 80 -94 32z m69 -124
c-7 -46 -17 -60 -39 -52 -22 9 -21 75 1 106 16 23 17 23 30 5 10 -13 12 -32 8
-59z"/>
<path d="M1468 1309 c-10 -5 -18 -15 -18 -21 0 -6 -7 -20 -17 -30 -15 -17 -15
-18 9 -18 14 0 28 7 32 15 6 17 71 21 81 5 3 -5 -2 -23 -11 -39 -15 -26 -16
-35 -5 -69 18 -53 8 -82 -29 -82 -62 0 -79 25 -35 54 29 19 33 43 8 49 -50 11
-107 -59 -84 -102 20 -37 59 -49 151 -46 l85 2 -3 29 c-2 16 -6 61 -8 99 -3
39 -12 77 -19 85 -7 8 -16 26 -20 40 -4 14 -13 28 -19 32 -16 11 -78 9 -98 -3z"/>
</g>
</svg>
