<?xml version="1.0" standalone="no"?>
<!DOCTYPE svg PUBLIC "-//W3C//DTD SVG 20010904//EN"
 "http://www.w3.org/TR/2001/REC-SVG-20010904/DTD/svg10.dtd">
<svg version="1.0" xmlns="http://www.w3.org/2000/svg"
 width="272.000000pt" height="252.000000pt" viewBox="0 0 272.000000 252.000000"
 preserveAspectRatio="xMidYMid meet">

<g transform="translate(0.000000,252.000000) scale(0.100000,-0.100000)"
fill="#000000" stroke="none">
<path d="M1019 1450 c-31 -16 -39 -27 -49 -70 -7 -27 -16 -53 -21 -56 -5 -3
-16 -31 -25 -62 -9 -31 -25 -73 -35 -92 -11 -19 -19 -42 -19 -50 0 -8 -11 -39
-25 -68 -14 -30 -25 -62 -25 -72 0 -9 -11 -37 -24 -62 -13 -25 -27 -60 -31
-79 -4 -19 -14 -47 -22 -63 -18 -34 -7 -46 42 -46 48 0 72 24 84 82 13 57 43
113 67 122 28 11 222 6 249 -6 14 -6 28 -23 31 -37 14 -61 26 -98 43 -126 16
-27 23 -30 67 -30 l49 0 -3 33 c-1 18 -11 49 -22 69 -11 21 -20 47 -20 58 0
11 -11 42 -23 70 -23 48 -42 98 -74 195 -8 25 -23 65 -33 90 -11 25 -24 63
-29 85 -6 22 -24 62 -41 88 -34 53 -53 58 -111 27z m65 -209 c13 -20 32 -71
43 -114 l19 -76 -29 -11 c-45 -15 -122 -13 -137 5 -16 20 -5 91 20 130 11 17
20 38 20 47 0 29 20 69 30 63 6 -4 21 -23 34 -44z"/>
<path d="M1561 1251 c-69 -31 -90 -57 -91 -108 0 -23 6 -36 21 -43 18 -10 26
-6 66 35 40 42 49 47 91 48 69 2 100 -9 117 -44 13 -24 14 -33 4 -45 -23 -28
-69 -45 -151 -55 -98 -12 -108 -17 -153 -76 -30 -39 -35 -54 -35 -98 0 -41 6
-59 28 -88 36 -48 77 -61 175 -54 64 4 83 10 103 28 l25 23 48 -27 c57 -32
106 -35 120 -9 7 14 2 28 -20 61 l-29 44 0 160 c0 194 -7 213 -98 248 -91 35
-146 35 -221 0z m207 -283 c20 -20 14 -59 -14 -100 -21 -29 -39 -42 -81 -55
-54 -17 -56 -17 -92 4 -30 17 -36 27 -39 59 -3 37 -1 40 44 63 66 35 161 50
182 29z"/>
</g>
</svg>
