<?xml version="1.0" standalone="no"?>
<!DOCTYPE svg PUBLIC "-//W3C//DTD SVG 20010904//EN"
 "http://www.w3.org/TR/2001/REC-SVG-20010904/DTD/svg10.dtd">
<svg version="1.0" xmlns="http://www.w3.org/2000/svg"
 width="266.000000pt" height="256.000000pt" viewBox="0 0 266.000000 256.000000"
 preserveAspectRatio="xMidYMid meet">

<g transform="translate(0.000000,256.000000) scale(0.100000,-0.100000)"
fill="#000000" stroke="none">
<path d="M815 1681 c-24 -5 -31 -14 -41 -47 -6 -22 -21 -59 -33 -82 -11 -23
-21 -49 -21 -59 0 -10 -12 -40 -25 -68 -14 -27 -25 -56 -25 -64 0 -8 -9 -33
-19 -55 -19 -39 -44 -108 -78 -206 -8 -25 -23 -61 -33 -80 -10 -19 -21 -51
-25 -70 -4 -19 -16 -51 -26 -70 -11 -19 -19 -41 -19 -49 0 -7 -11 -39 -24 -70
-38 -89 -58 -163 -48 -173 15 -15 83 -21 122 -11 31 8 36 15 51 66 10 32 22
64 28 71 6 7 15 35 21 62 6 29 24 66 41 87 l30 37 184 0 183 0 26 -30 c14 -17
30 -50 36 -73 5 -23 15 -55 21 -72 11 -29 37 -107 44 -132 10 -32 182 -25 178
7 -3 25 -33 112 -54 158 -10 23 -23 59 -28 80 -5 20 -19 61 -30 90 -12 28 -30
76 -42 105 -11 28 -25 69 -30 90 -5 20 -18 54 -29 75 -11 20 -20 46 -20 57 0
11 -11 43 -25 70 -13 28 -25 59 -25 70 0 11 -9 36 -19 56 -11 20 -25 56 -31
80 -14 51 -58 141 -74 151 -13 9 -98 8 -141 -1z m106 -327 c9 -33 23 -73 31
-89 8 -17 21 -52 27 -80 7 -27 17 -55 21 -61 5 -5 11 -26 12 -44 3 -31 0 -35
-27 -41 -38 -8 -181 -9 -220 0 -38 8 -44 44 -16 97 12 21 21 45 21 53 0 7 11
39 24 70 13 31 29 75 35 99 12 41 39 65 66 58 6 -1 17 -29 26 -62z"/>
<path d="M1684 1390 c-96 -14 -185 -98 -199 -188 -9 -58 4 -72 70 -72 56 0 69
9 80 52 4 14 25 41 48 59 39 31 47 34 112 34 88 -1 135 -26 158 -85 15 -38 14
-41 -7 -72 -24 -36 -5 -30 -261 -77 -114 -21 -163 -48 -208 -113 -87 -126 -25
-321 114 -358 85 -23 255 -6 294 29 11 10 33 25 50 34 29 15 30 14 65 -23 29
-31 44 -39 87 -45 73 -10 107 8 111 58 3 33 0 39 -31 57 -19 12 -40 33 -46 48
-6 16 -12 132 -14 277 -2 185 -6 257 -16 277 -8 15 -38 44 -66 64 -41 28 -67
38 -121 44 -80 11 -148 11 -220 0z m270 -461 c13 -18 12 -28 -3 -84 -20 -70
-47 -101 -120 -137 -70 -35 -136 -32 -188 9 -48 39 -59 70 -39 117 22 53 85
85 192 97 48 5 90 12 93 14 12 13 51 3 65 -16z"/>
</g>
</svg>
