<?xml version="1.0" standalone="no"?>
<!DOCTYPE svg PUBLIC "-//W3C//DTD SVG 20010904//EN"
 "http://www.w3.org/TR/2001/REC-SVG-20010904/DTD/svg10.dtd">
<svg version="1.0" xmlns="http://www.w3.org/2000/svg"
 width="188.000000pt" height="234.000000pt" viewBox="0 0 188.000000 234.000000"
 preserveAspectRatio="xMidYMid meet">

<g transform="translate(0.000000,234.000000) scale(0.100000,-0.100000)"
fill="#000000" stroke="none">
<path d="M855 1710 c-11 -5 -39 -9 -63 -9 -85 -2 -202 -84 -248 -175 -11 -23
-27 -54 -36 -71 -48 -92 -50 -102 -44 -172 13 -157 33 -243 55 -243 6 0 18
-14 27 -31 23 -46 85 -107 116 -114 15 -4 43 -22 62 -41 24 -24 44 -34 66 -34
17 0 42 -7 55 -16 37 -24 200 -16 240 12 17 11 46 27 65 34 86 33 153 98 200
195 34 68 35 73 35 190 0 105 -3 124 -21 150 -11 17 -27 46 -34 65 -29 75 -95
150 -165 186 -22 11 -56 29 -75 39 -19 10 -48 24 -63 31 -31 15 -140 18 -172
4z"/>
</g>
</svg>
