<?xml version="1.0" standalone="no"?>
<!DOCTYPE svg PUBLIC "-//W3C//DTD SVG 20010904//EN"
 "http://www.w3.org/TR/2001/REC-SVG-20010904/DTD/svg10.dtd">
<svg version="1.0" xmlns="http://www.w3.org/2000/svg"
 width="222.000000pt" height="238.000000pt" viewBox="0 0 222.000000 238.000000"
 preserveAspectRatio="xMidYMid meet">

<g transform="translate(0.000000,238.000000) scale(0.100000,-0.100000)"
fill="#000000" stroke="none">
<path d="M1016 1603 c-31 -8 -125 -72 -166 -113 -45 -45 -65 -120 -57 -210 8
-97 124 -248 207 -270 22 -6 42 -15 45 -20 10 -16 127 -12 178 6 55 19 153
110 163 152 4 15 13 38 21 51 11 17 13 37 8 70 -3 25 -10 69 -14 98 -7 55 -14
66 -100 153 -85 85 -94 90 -186 89 -44 -1 -88 -3 -99 -6z"/>
</g>
</svg>
